<svg width="19" height="31" viewBox="0 0 19 31" fill="none" xmlns="http://www.w3.org/2000/svg">
<path d="M0 31C0.46224 25.7852 1.0516 20.5838 1.76422 15.4092C2.09934 12.9807 2.47684 10.5075 3.50532 8.3563C3.97142 7.38132 4.63396 6.4332 5.55844 6.13802C6.74871 5.75787 8.02757 6.6076 8.71323 7.79726C9.39889 8.98691 9.62615 10.4494 9.81105 11.8627C10.5969 17.7841 11.0398 23.7726 11.1323 29.7656C10.2001 26.2056 9.00598 22.4578 6.41358 20.2663C5.2965 19.3226 3.76726 18.7323 2.53847 19.4702C1.30968 20.2081 1.04389 22.6902 2.32276 23.3074C2.83122 23.5534 3.41287 23.4461 3.9483 23.2985C9.92276 21.6303 14.4373 14.6177 14.1214 7.48869C14.8495 14.8368 15.8433 22.1491 17.1067 29.3989C15.7971 24.4658 14.4912 19.5328 13.1816 14.5997C12.284 11.2231 11.3827 7.62282 12.1762 4.20592C12.7771 1.62089 15.1191 -0.852344 17.203 0.28364C18.3509 0.909773 18.9634 2.44833 18.9981 3.91974C19.0327 5.39115 18.5936 6.81338 18.1275 8.18193C14.847 18.4337 10.3454 22.4348 10.3454 22.4348" fill="#0A1719"/>
</svg>
